<?xml version="1.0" standalone="no"?><!DOCTYPE svg PUBLIC "-//W3C//DTD SVG 1.1//EN" "http://www.w3.org/Graphics/SVG/1.1/DTD/svg11.dtd"><svg t="1596267804539" class="icon" viewBox="0 0 1024 1024" version="1.1" xmlns="http://www.w3.org/2000/svg" p-id="2798" xmlns:xlink="http://www.w3.org/1999/xlink" width="200" height="200"><defs><style type="text/css"></style></defs><path d="M915.856489 62.365396 573.063239 62.365396c-23.563672 0-56.472176 13.625322-73.15309 30.308283L74.876849 517.704932c-16.653285 16.655332-16.653285 43.937698 0 60.592007L442.773847 946.192913c16.654308 16.655332 43.937698 16.655332 60.590983 0L928.39813 521.160637c16.650215-16.650215 30.306236-49.589418 30.306236-73.154114L958.704366 105.21225C958.704366 81.649602 939.421184 62.365396 915.856489 62.365396L915.856489 62.365396 915.856489 62.365396zM701.61301 405.155577c-47.336098 0-85.697801-38.361703-85.697801-85.698824 0-47.332005 38.361703-85.694731 85.697801-85.694731 47.333028 0 85.692684 38.361703 85.692684 85.694731C787.305695 366.793874 748.946039 405.155577 701.61301 405.155577L701.61301 405.155577zM701.61301 405.155577" p-id="2799"></path></svg>